<svg width="24" height="24" viewBox="0 0 24 24" fill="none" xmlns="http://www.w3.org/2000/svg">
<path d="M11 22V19.6445C9.10535 19.443 7.24831 18.6624 5.79297 17.207C5.40244 16.8165 5.40244 16.1835 5.79297 15.793C6.18349 15.4024 6.81651 15.4024 7.20703 15.793C8.49597 17.0819 10.23 17.7002 12 17.7002C12.9985 17.7002 14.2086 17.6433 15.1465 17.2891C15.602 17.117 15.9329 16.8969 16.1475 16.6338C16.349 16.3867 16.5 16.0397 16.5 15.5C16.4999 14.7181 16.182 14.1589 15.5283 13.7461C14.816 13.2964 13.6568 13.0001 12 13C10.1224 13 8.53405 12.5994 7.38281 11.832C6.20567 11.0473 5.5 9.87808 5.5 8.5C5.5 6.55628 6.6792 5.38669 8.02246 4.76172C8.96777 4.32194 10.0444 4.11911 11 4.04102V2C11 1.44772 11.4477 1 12 1C12.5521 1.00026 13 1.44788 13 2V4.0498C15.3131 4.28411 17.2554 5.33077 18.332 6.94531C18.6384 7.4048 18.5142 8.02562 18.0547 8.33203C17.5952 8.63821 16.9743 8.51408 16.668 8.05469C15.8971 6.89892 14.2522 6.0001 12 6C10.9922 6.00001 9.78344 6.14848 8.86621 6.5752C7.99686 6.97967 7.5 7.56057 7.5 8.5C7.5 9.1219 7.79454 9.70291 8.49219 10.168C9.21577 10.6503 10.3784 11 12 11C13.842 11.0001 15.4328 11.3206 16.5957 12.0547C17.8172 12.8258 18.4999 14.0166 18.5 15.5C18.5001 16.46 18.2143 17.2634 17.6973 17.8975C17.1931 18.5156 16.523 18.9072 15.8535 19.1602C14.9259 19.5106 13.8845 19.6338 13 19.6768V22C13 22.5523 12.5523 23 12 23C11.4479 22.9999 11 22.5522 11 22Z" fill="#080808"/>
</svg>
